<?xml version="1.0" standalone="no"?>
<!DOCTYPE svg PUBLIC "-//W3C//DTD SVG 20010904//EN"
 "http://www.w3.org/TR/2001/REC-SVG-20010904/DTD/svg10.dtd">
<svg version="1.0" xmlns="http://www.w3.org/2000/svg"
 width="512.000000pt" height="512.000000pt" viewBox="0 0 512.000000 512.000000"
 preserveAspectRatio="xMidYMid meet">

<g transform="translate(0.000000,512.000000) scale(0.100000,-0.100000)"
fill="#000000" stroke="none">
<path d="M2330 5110 c-494 -48 -950 -230 -1350 -538 -195 -150 -448 -432 -594
-662 -63 -99 -186 -351 -230 -471 -49 -134 -102 -340 -128 -499 -31 -195 -31
-565 0 -760 45 -276 116 -498 237 -745 132 -269 269 -460 489 -681 221 -220
412 -357 681 -489 247 -121 469 -192 745 -237 195 -31 565 -31 760 0 276 45
498 116 745 237 269 132 460 269 681 489 220 221 357 412 489 681 88 179 132
296 180 476 63 240 78 371 78 649 0 278 -15 409 -78 649 -48 180 -92 297 -180
476 -132 269 -269 460 -489 681 -221 220 -412 357 -681 489 -246 121 -474 193
-740 235 -147 23 -475 34 -615 20z m520 -284 c313 -43 596 -139 856 -293 558
-331 949 -866 1085 -1484 17 -80 49 -296 49 -336 0 -10 -87 -13 -432 -13 -466
-1 -530 -6 -646 -53 -139 -56 -250 -143 -332 -259 -84 -120 -82 -112 -281
-935 -40 -167 -76 -303 -79 -303 -3 0 -120 471 -259 1048 -140 576 -266 1081
-281 1123 -77 221 -274 425 -491 509 -146 56 -197 60 -790 60 -297 0 -539 2
-539 6 0 13 123 158 215 253 128 132 224 212 381 317 271 181 620 314 924 353
47 6 96 13 110 15 71 10 416 4 510 -8z m-980 -1231 c102 -27 180 -73 260 -154
66 -67 140 -174 128 -187 -3 -2 -426 -3 -940 -2 l-935 3 42 110 c23 61 57 140
74 178 l33 67 641 0 c529 0 652 -3 697 -15z m475 -647 c3 -13 135 -559 294
-1213 l289 -1190 -28 -119 c-16 -65 -34 -124 -40 -130 -12 -12 -543 -17 -555
-5 -3 4 -98 386 -211 850 -266 1097 -259 1071 -293 1143 -69 143 -191 265
-336 336 -153 75 -143 74 -693 78 l-494 3 7 62 c3 34 11 95 17 135 l11 72
1013 0 1014 0 5 -22z m-1080 -544 c92 -23 186 -86 236 -155 l20 -29 -609 0
-610 0 -6 48 c-3 26 -8 71 -12 100 l-6 52 464 0 c387 0 474 -3 523 -16z m3571
-34 c-3 -27 -9 -72 -12 -100 l-6 -50 -584 0 c-659 0 -610 -7 -522 76 55 52
105 82 176 105 51 16 101 18 505 18 l449 1 -6 -50z m-3216 -436 c0 -3 86 -358
190 -788 105 -431 190 -786 190 -790 0 -10 -50 1 -155 36 -357 119 -660 310
-927 586 -249 258 -429 559 -534 890 l-22 72 629 0 c346 0 629 -3 629 -6z
m3116 -66 c-103 -329 -285 -632 -531 -887 -217 -224 -441 -383 -712 -505 -104
-46 -312 -120 -320 -113 -3 4 350 1478 373 1560 5 16 43 17 609 17 l603 0 -22
-72z"/>
</g>
</svg>
