<?xml version="1.0" standalone="no"?>
<!DOCTYPE svg PUBLIC "-//W3C//DTD SVG 20010904//EN"
 "http://www.w3.org/TR/2001/REC-SVG-20010904/DTD/svg10.dtd">
<svg version="1.0" xmlns="http://www.w3.org/2000/svg"
 width="512.000000pt" height="512.000000pt" viewBox="0 0 512.000000 512.000000"
 preserveAspectRatio="xMidYMid meet">

<g transform="translate(0.000000,512.000000) scale(0.100000,-0.100000)"
fill="#000000" stroke="none">
<path d="M2330 5110 c-494 -48 -950 -230 -1350 -538 -195 -150 -448 -432 -594
-662 -63 -99 -186 -351 -230 -471 -49 -134 -102 -340 -128 -499 -31 -195 -31
-565 0 -760 45 -276 116 -498 237 -745 132 -269 269 -460 489 -681 221 -220
412 -357 681 -489 247 -121 469 -192 745 -237 195 -31 565 -31 760 0 276 45
498 116 745 237 269 132 460 269 681 489 220 221 357 412 489 681 88 179 132
296 180 476 63 240 78 371 78 649 0 278 -15 409 -78 649 -48 180 -92 297 -180
476 -132 269 -269 460 -489 681 -221 220 -412 357 -681 489 -246 121 -474 193
-740 235 -147 23 -475 34 -615 20z m522 -285 c274 -36 576 -136 813 -268 607
-340 1029 -934 1145 -1615 l17 -104 -571 570 c-360 360 -586 577 -611 590
-152 76 -323 68 -456 -21 -30 -20 -272 -255 -539 -521 l-485 -486 -300 300
c-265 264 -308 302 -365 329 -127 60 -260 58 -390 -5 -70 -35 -100 -62 -448
-408 l-373 -371 6 45 c121 870 729 1600 1555 1869 127 41 292 80 409 96 135
18 454 18 593 0z m636 -1060 c26 -11 236 -215 695 -673 l658 -657 -6 -70 c-28
-318 -131 -654 -283 -920 -108 -189 -249 -376 -279 -369 -29 6 -598 94 -611
94 -9 0 -12 66 -12 255 l0 255 93 0 c51 0 118 7 150 15 126 33 219 126 252
252 21 79 21 379 1 428 -20 46 -69 75 -129 75 -40 0 -53 -5 -83 -33 -46 -42
-53 -78 -54 -264 0 -195 1 -193 -135 -193 l-95 0 0 510 c0 552 0 549 -55 600
-22 21 -37 25 -85 25 -48 0 -63 -4 -85 -25 -56 -51 -55 -36 -55 -730 l0 -642
-126 4 c-124 3 -126 3 -150 31 -23 26 -24 35 -24 154 0 96 -4 133 -17 160 -22
47 -66 73 -125 73 -60 0 -112 -41 -129 -103 -14 -50 -6 -284 12 -337 17 -54
79 -141 126 -176 78 -59 136 -74 293 -74 l140 0 0 -105 c0 -58 -3 -105 -7
-105 -29 0 -2900 454 -2906 459 -13 12 -65 158 -97 271 -29 104 -63 288 -74
405 l-6 60 462 462 c317 316 475 467 500 478 44 18 92 19 130 2 16 -7 156
-140 313 -297 l285 -284 -144 -146 c-79 -80 -149 -155 -155 -167 -16 -31 -14
-89 4 -124 32 -61 121 -87 183 -55 15 8 351 339 747 736 491 492 733 728 760
741 49 23 75 24 123 4z m-1470 -2615 c739 -115 1346 -210 1348 -210 2 0 4 -44
4 -97 0 -151 42 -213 143 -213 35 0 53 6 78 27 43 37 59 80 59 163 0 49 4 70
13 70 29 1 363 -53 370 -60 9 -8 -96 -95 -205 -168 -287 -193 -624 -318 -988
-368 -171 -23 -504 -15 -670 15 -632 117 -1157 462 -1520 1000 l-43 64 34 -6
c19 -4 639 -101 1377 -217z"/>
</g>
</svg>
