<?xml version="1.0" standalone="no"?>
<!DOCTYPE svg PUBLIC "-//W3C//DTD SVG 20010904//EN"
 "http://www.w3.org/TR/2001/REC-SVG-20010904/DTD/svg10.dtd">
<svg version="1.0" xmlns="http://www.w3.org/2000/svg"
 width="512.000000pt" height="512.000000pt" viewBox="0 0 512.000000 512.000000"
 preserveAspectRatio="xMidYMid meet">

<g transform="translate(0.000000,512.000000) scale(0.100000,-0.100000)"
fill="#000000" stroke="none">
<path d="M2330 5110 c-494 -48 -950 -230 -1350 -538 -195 -150 -448 -432 -594
-662 -63 -99 -186 -351 -230 -471 -49 -134 -102 -340 -128 -499 -31 -195 -31
-565 0 -760 45 -276 116 -498 237 -745 132 -269 269 -460 489 -681 221 -220
412 -357 681 -489 247 -121 469 -192 745 -237 195 -31 565 -31 760 0 276 45
498 116 745 237 269 132 460 269 681 489 220 221 357 412 489 681 88 179 132
296 180 476 63 240 78 371 78 649 0 278 -15 409 -78 649 -48 180 -92 297 -180
476 -132 269 -269 460 -489 681 -221 220 -412 357 -681 489 -246 121 -474 193
-740 235 -147 23 -475 34 -615 20z m520 -284 c397 -54 759 -201 1080 -439 122
-91 366 -335 457 -457 238 -321 385 -683 439 -1080 18 -138 18 -436 -1 -577
-48 -368 -179 -708 -387 -1010 l-50 -73 -70 63 c-141 125 -259 208 -384 270
l-64 31 0 286 0 287 26 24 c149 140 284 504 284 768 0 292 -135 695 -291 865
-34 37 -74 73 -90 81 -36 19 -102 19 -137 1 -34 -17 -109 -97 -148 -155 l-28
-43 -12 38 c-51 166 -72 222 -115 313 -81 170 -179 299 -261 342 -73 38 -126
20 -214 -72 -133 -139 -237 -357 -304 -636 l-22 -92 -50 40 c-41 32 -58 39
-94 39 -60 0 -91 -18 -158 -91 -173 -192 -297 -614 -265 -909 24 -220 119
-459 237 -590 l42 -48 0 -227 0 -227 -146 141 c-215 207 -352 298 -554 365
-155 52 -286 70 -450 63 -250 -11 -452 -77 -650 -212 -52 -35 -82 -50 -85 -42
-118 357 -139 805 -55 1192 66 302 209 614 403 875 91 122 335 366 457 457
317 235 680 384 1070 438 129 18 459 18 590 1z m265 -931 c86 -188 144 -438
145 -620 0 -153 -48 -351 -120 -497 -41 -82 -96 -168 -108 -168 -12 0 -71 96
-112 183 -126 264 -143 537 -55 863 31 115 82 241 130 322 l37 64 25 -37 c14
-20 40 -70 58 -110z m642 -402 c98 -175 160 -463 141 -658 -14 -140 -85 -345
-148 -425 -20 -25 -20 -25 -36 -5 -31 40 -94 182 -121 270 -24 80 -27 107 -27
245 -1 161 8 223 56 370 24 76 98 240 108 240 3 0 16 -17 27 -37z m-1307 -285
c48 -103 86 -240 102 -369 14 -117 3 -220 -38 -352 -29 -93 -93 -219 -108
-214 -18 6 -83 148 -112 242 -24 78 -28 108 -28 225 -1 139 12 218 56 353 21
66 78 197 85 197 2 0 22 -37 43 -82z m914 -714 c34 -105 146 -295 205 -348 20
-18 21 -27 21 -256 l0 -236 -87 18 c-49 10 -143 21 -210 25 l-123 6 0 319 0
319 53 62 c29 34 66 83 82 109 16 26 33 44 36 40 4 -4 14 -30 23 -58z m-516
-97 l52 -57 0 -330 0 -330 -27 -6 c-130 -29 -231 -59 -305 -89 -17 -7 -18 7
-18 205 l0 211 45 56 c79 96 147 229 186 361 7 23 13 41 14 40 1 -2 25 -29 53
-61z m-1550 -562 c143 -14 323 -86 452 -181 67 -49 363 -333 358 -343 -2 -3
-164 -165 -360 -360 l-357 -355 -73 49 c-143 95 -235 170 -369 304 -178 179
-295 335 -408 545 l-42 79 27 28 c35 37 142 108 221 148 84 42 220 80 323 90
83 8 100 8 228 -4z m2013 -415 c235 -24 450 -100 636 -223 71 -47 253 -202
253 -215 0 -4 -33 -39 -72 -78 -290 -282 -694 -496 -1093 -579 -301 -62 -668
-60 -970 5 -101 22 -294 82 -373 117 l-43 18 328 326 c320 317 384 372 528
457 182 106 426 173 661 181 23 0 88 -4 145 -9z"/>
</g>
</svg>
