<?xml version="1.0" standalone="no"?>
<!DOCTYPE svg PUBLIC "-//W3C//DTD SVG 20010904//EN"
 "http://www.w3.org/TR/2001/REC-SVG-20010904/DTD/svg10.dtd">
<svg version="1.0" xmlns="http://www.w3.org/2000/svg"
 width="512.000000pt" height="512.000000pt" viewBox="0 0 512.000000 512.000000"
 preserveAspectRatio="xMidYMid meet">

<g transform="translate(0.000000,512.000000) scale(0.100000,-0.100000)"
fill="#000000" stroke="none">
<path d="M2330 5110 c-494 -48 -950 -230 -1350 -538 -195 -150 -448 -432 -594
-662 -63 -99 -186 -351 -230 -471 -50 -135 -102 -340 -127 -499 -27 -164 -32
-534 -11 -690 66 -467 243 -887 531 -1260 90 -118 336 -360 456 -451 375 -285
748 -443 1215 -516 173 -27 538 -24 720 6 275 44 498 115 745 236 269 132 460
269 681 489 220 221 357 412 489 681 88 179 132 296 180 476 63 240 78 371 78
649 0 278 -15 409 -78 649 -48 180 -92 297 -180 476 -132 269 -269 460 -489
681 -221 220 -412 357 -681 489 -246 121 -474 193 -740 235 -147 23 -475 34
-615 20z m520 -284 c397 -54 759 -201 1080 -439 122 -91 366 -335 457 -457
238 -321 385 -683 439 -1080 16 -121 18 -416 4 -540 -12 -101 -49 -302 -58
-316 -4 -5 -46 -8 -99 -6 l-93 4 0 311 c0 292 -1 314 -20 344 -42 69 -32 68
-462 71 l-388 3 0 292 0 292 30 17 c39 22 70 74 70 118 0 43 -31 96 -69 118
-27 15 -29 22 -35 93 -9 100 -29 162 -71 226 -87 132 -254 203 -409 174 -199
-37 -336 -207 -336 -416 0 -60 -1 -62 -35 -78 -90 -43 -90 -184 -1 -232 l36
-20 0 -291 0 -291 -89 -5 c-104 -6 -147 -25 -173 -78 -16 -31 -18 -70 -18
-342 l0 -308 -37 0 c-120 -1 -156 -33 -215 -186 l-43 -114 -932 0 -931 0 -30
83 c-105 289 -142 495 -142 792 0 99 7 227 14 285 54 397 201 759 439 1080 91
122 335 366 457 457 317 235 680 384 1070 438 129 18 459 18 590 1z m521
-1067 c40 -29 59 -69 59 -129 l0 -50 -136 0 -137 0 7 56 c7 65 27 104 65 127
37 24 106 22 142 -4z m59 -749 l0 -290 -135 0 -135 0 0 290 0 290 135 0 135 0
0 -290z m880 -795 l0 -225 -710 0 -710 0 0 225 0 225 710 0 710 0 0 -225z
m359 -534 c-41 -117 -203 -391 -316 -535 -74 -94 -239 -262 -335 -343 -174
-145 -426 -293 -644 -377 -95 -37 -274 -90 -280 -83 -2 2 70 195 162 428 176
451 180 463 140 524 -52 79 -181 77 -229 -4 -8 -14 -99 -242 -202 -506 -103
-264 -189 -486 -192 -492 -14 -36 -650 1 -688 39 -4 4 518 1348 531 1369 3 5
434 9 1034 9 l1029 0 -10 -29z m-2469 -277 c0 -7 -382 -988 -387 -993 -6 -8
-166 60 -283 121 -213 112 -388 239 -560 409 l-95 94 200 5 c222 6 237 9 275
73 24 39 25 78 3 124 -34 72 -41 73 -385 73 l-308 0 -23 38 c-13 20 -27 43
-31 50 -6 9 156 12 793 12 441 0 801 -3 801 -6z"/>
<path d="M3050 2333 c-46 -24 -80 -76 -80 -123 0 -47 34 -99 80 -122 45 -23
140 -24 186 -2 97 46 106 181 16 240 -40 26 -157 30 -202 7z"/>
<path d="M3473 2331 c-93 -43 -103 -180 -17 -236 34 -22 140 -31 186 -16 19 6
48 25 64 42 25 26 29 38 29 89 0 48 -4 63 -25 85 -52 57 -156 72 -237 36z"/>
<path d="M3900 2332 c-46 -23 -80 -75 -80 -122 0 -82 72 -140 175 -140 107 0
170 52 170 140 0 88 -63 140 -170 140 -37 0 -73 -7 -95 -18z"/>
</g>
</svg>
