<?xml version="1.0" standalone="no"?>
<!DOCTYPE svg PUBLIC "-//W3C//DTD SVG 20010904//EN"
 "http://www.w3.org/TR/2001/REC-SVG-20010904/DTD/svg10.dtd">
<svg version="1.0" xmlns="http://www.w3.org/2000/svg"
 width="512.000000pt" height="512.000000pt" viewBox="0 0 512.000000 512.000000"
 preserveAspectRatio="xMidYMid meet">

<g transform="translate(0.000000,512.000000) scale(0.100000,-0.100000)"
fill="#000000" stroke="none">
<path d="M2330 5110 c-494 -48 -950 -230 -1350 -538 -195 -150 -448 -432 -594
-662 -63 -99 -186 -351 -230 -471 -448 -1224 107 -2602 1278 -3173 312 -152
586 -228 936 -257 345 -28 738 26 1069 147 120 44 372 167 471 230 321 204
620 503 824 824 63 99 186 351 230 471 49 134 102 340 128 499 18 113 21 176
21 380 0 278 -15 409 -78 649 -48 180 -92 297 -180 476 -132 269 -269 460
-489 681 -221 220 -412 357 -681 489 -246 121 -474 193 -740 235 -147 23 -475
34 -615 20z m520 -284 c397 -54 759 -201 1080 -439 122 -91 366 -335 457 -457
238 -321 385 -683 439 -1080 19 -143 18 -437 -2 -580 -9 -63 -17 -116 -19
-118 -1 -2 -309 206 -683 461 -374 255 -693 467 -710 470 -17 3 -44 2 -61 -3
-17 -5 -282 -190 -587 -412 -306 -222 -559 -402 -563 -401 -4 1 -171 79 -371
174 -332 157 -366 171 -406 166 -36 -4 -116 -55 -546 -350 -276 -190 -504
-344 -506 -343 -9 9 -44 156 -63 261 -27 151 -37 483 -20 636 47 405 199 789
444 1119 91 122 335 366 457 457 317 235 680 384 1070 438 129 18 459 18 590
1z m1207 -2502 c368 -250 669 -461 671 -468 10 -44 -219 -526 -250 -526 -5 0
-37 12 -71 26 -399 169 -1029 264 -1761 264 -255 0 -789 20 -799 29 -6 6 1525
1129 1540 1131 2 0 303 -205 670 -456z m-2358 -125 c130 -62 239 -114 243
-118 7 -7 -490 -371 -526 -385 -27 -11 -317 30 -550 77 l-159 32 364 252 c200
138 370 251 378 252 7 1 120 -49 250 -110z m-1102 -650 c236 -55 506 -103 758
-133 348 -43 640 -59 1380 -76 502 -12 666 -25 975 -76 217 -36 430 -92 563
-148 l38 -17 -20 -27 c-25 -35 -231 -235 -298 -291 -229 -187 -564 -355 -856
-430 -224 -58 -290 -65 -572 -66 -292 0 -402 14 -634 80 -516 147 -980 489
-1274 937 -73 112 -162 268 -153 268 3 0 45 -9 93 -21z"/>
</g>
</svg>
