<?xml version="1.0" standalone="no"?>
<!DOCTYPE svg PUBLIC "-//W3C//DTD SVG 20010904//EN"
 "http://www.w3.org/TR/2001/REC-SVG-20010904/DTD/svg10.dtd">
<svg version="1.0" xmlns="http://www.w3.org/2000/svg"
 width="512.000000pt" height="512.000000pt" viewBox="0 0 512.000000 512.000000"
 preserveAspectRatio="xMidYMid meet">

<g transform="translate(0.000000,512.000000) scale(0.100000,-0.100000)"
fill="#000000" stroke="none">
<path d="M2330 5110 c-494 -48 -950 -230 -1350 -538 -195 -150 -448 -432 -594
-662 -63 -99 -186 -351 -230 -471 -49 -134 -102 -340 -128 -499 -31 -195 -31
-565 0 -760 45 -276 116 -498 237 -745 132 -269 269 -460 489 -681 221 -220
412 -357 681 -489 247 -121 469 -192 745 -237 195 -31 565 -31 760 0 276 45
498 116 745 237 269 132 460 269 681 489 220 221 357 412 489 681 88 179 132
296 180 476 63 240 78 371 78 649 0 278 -15 409 -78 649 -48 180 -92 297 -180
476 -132 269 -269 460 -489 681 -221 220 -412 357 -681 489 -246 121 -474 193
-740 235 -147 23 -475 34 -615 20z m520 -284 c397 -54 759 -201 1080 -439 122
-91 366 -335 457 -457 245 -330 397 -714 444 -1119 18 -159 7 -485 -21 -644
l-23 -128 -251 249 c-194 193 -260 252 -290 262 -67 22 -97 5 -236 -135 l-125
-125 -405 404 c-223 223 -418 410 -433 415 -46 18 -80 13 -128 -18 -24 -16
-258 -243 -519 -505 l-475 -476 -250 249 c-266 265 -279 274 -352 256 -19 -4
-172 -150 -460 -438 -238 -237 -434 -429 -436 -427 -8 9 -67 197 -87 279 -77
307 -81 699 -10 1026 66 302 209 614 403 875 91 122 335 366 457 457 317 235
680 384 1070 438 129 18 459 18 590 1z m498 -2389 l342 -342 -268 -268 -267
-267 -695 0 -695 0 610 610 c335 336 614 610 620 610 6 0 164 -154 353 -343z
m-1800 -340 l182 -182 -178 -178 -177 -177 -370 0 -370 0 360 360 c198 198
362 360 365 360 3 0 87 -82 188 -183z m2906 -116 l239 -239 -39 -91 -39 -91
-535 0 -535 0 330 330 c181 182 332 330 335 330 3 0 113 -108 244 -239z m-4
-698 c-1 -25 -154 -208 -274 -329 -269 -270 -550 -445 -903 -563 -229 -76
-450 -111 -713 -111 -263 0 -484 35 -713 111 -353 118 -634 293 -903 563 -120
121 -273 304 -274 329 0 4 851 7 1890 7 1040 0 1890 -3 1890 -7z"/>
<path d="M1780 4330 c-423 -79 -630 -552 -400 -909 72 -111 181 -198 306 -243
82 -29 246 -36 334 -14 176 44 318 160 394 321 45 93 60 162 59 266 -2 253
-168 478 -408 555 -88 28 -211 38 -285 24z m214 -290 c72 -27 139 -88 173
-158 39 -80 40 -191 2 -273 -55 -118 -159 -184 -289 -183 -115 1 -204 47 -263
138 -88 135 -74 291 37 402 90 90 221 118 340 74z"/>
</g>
</svg>
